<svg width="44" height="44" viewBox="0 0 44 44" fill="none" xmlns="http://www.w3.org/2000/svg">
<rect width="44" height="44" rx="22" fill="#D6EBFF"/>
<path d="M22.3067 18.1527C22.5623 18.1527 22.8074 18.0511 22.9881 17.8704C23.1688 17.6897 23.2704 17.4446 23.2704 17.189C23.2704 16.9335 23.1688 16.6884 22.9881 16.5076C22.8074 16.3269 22.5623 16.2254 22.3067 16.2254C22.0512 16.2254 21.8061 16.3269 21.6253 16.5076C21.4446 16.6884 21.3431 16.9335 21.3431 17.189C21.3431 17.4446 21.4446 17.6897 21.6253 17.8704C21.8061 18.0511 22.0512 18.1527 22.3067 18.1527ZM29.2435 26.7843V20.6106H29.3499C30.3823 20.6106 30.8066 19.2834 29.9626 18.6856L23.1993 13.8854C22.9387 13.6997 22.6267 13.5999 22.3067 13.5999C21.9868 13.5999 21.6748 13.6997 21.4142 13.8854L14.6486 18.6856C13.8069 19.2834 14.2289 20.6094 15.2613 20.6094H15.37V26.7831C14.6751 27.2294 14.2139 28.0086 14.2139 28.8954V30.4365C14.2139 30.5898 14.2748 30.7369 14.3832 30.8453C14.4916 30.9537 14.6386 31.0146 14.7919 31.0146H29.8216C29.9749 31.0146 30.1219 30.9537 30.2303 30.8453C30.3387 30.7369 30.3996 30.5898 30.3996 30.4365V28.8954C30.3996 28.0086 29.9395 27.2294 29.2435 26.7843ZM22.0824 14.8288C22.1473 14.7822 22.2252 14.7572 22.305 14.7572C22.3849 14.7572 22.4627 14.7822 22.5276 14.8288L29.047 19.4533H15.5642L22.0824 14.8288ZM28.0851 20.6094V26.397C28.0212 26.392 27.9572 26.3897 27.8931 26.3901H25.7728V20.6106L28.0851 20.6094ZM16.5261 26.397V20.6106H18.8384V26.3912H16.718C16.6533 26.3912 16.5889 26.3935 16.525 26.3982M16.718 27.5473H27.8943C28.6388 27.5473 29.2423 28.1508 29.2423 28.8965V29.8596H15.37V28.8965C15.37 28.1508 15.9735 27.5473 16.718 27.5473ZM21.7287 26.3912H19.9945V20.6106H21.7287V26.3912ZM22.8848 26.3912V20.6106H24.619V26.3912H22.8848Z" fill="#007AF5"/>
</svg>
