<svg width="47" height="47" viewBox="0 0 47 47" fill="none" xmlns="http://www.w3.org/2000/svg">
<rect width="46.2257" height="46.2257" rx="23.1129" fill="#D6EBFF"/>
<path d="M16.0801 28.0793V30.0793V16.0793V28.0793ZM16.6961 31.0793C16.2481 31.0793 15.8667 30.922 15.5521 30.6073C15.2374 30.2927 15.0801 29.9117 15.0801 29.4643V16.6943C15.0801 16.2477 15.2374 15.8667 15.5521 15.5513C15.8667 15.2367 16.2481 15.0793 16.6961 15.0793H29.4651C29.9117 15.0793 30.2927 15.2367 30.6081 15.5513C30.9227 15.866 31.0801 16.2473 31.0801 16.6953V19.6373H30.0801V16.6953C30.0801 16.5153 30.0224 16.3677 29.9071 16.2523C29.7917 16.137 29.6444 16.0793 29.4651 16.0793H16.6951C16.5157 16.0793 16.3684 16.137 16.2531 16.2523C16.1377 16.3677 16.0801 16.5153 16.0801 16.6953V29.4643C16.0801 29.6437 16.1377 29.791 16.2531 29.9063C16.3684 30.0217 16.5161 30.0793 16.6961 30.0793H29.4651C29.6444 30.0793 29.7917 30.0217 29.9071 29.9063C30.0224 29.791 30.0801 29.6437 30.0801 29.4643V26.5213H31.0801V29.4643C31.0801 29.911 30.9227 30.292 30.6081 30.6073C30.2934 30.922 29.9124 31.0793 29.4651 31.0793H16.6961ZM24.6961 27.0793C24.2481 27.0793 23.8667 26.922 23.5521 26.6073C23.2374 26.2927 23.0801 25.9117 23.0801 25.4643V20.6943C23.0801 20.2477 23.2374 19.8667 23.5521 19.5513C23.8667 19.2367 24.2481 19.0793 24.6961 19.0793H30.4651C30.9117 19.0793 31.2927 19.2367 31.6081 19.5513C31.9227 19.866 32.0801 20.2473 32.0801 20.6953V25.4643C32.0801 25.911 31.9227 26.292 31.6081 26.6073C31.2934 26.922 30.9124 27.0793 30.4651 27.0793H24.6961ZM30.4651 26.0793C30.6444 26.0793 30.7917 26.0217 30.9071 25.9063C31.0224 25.791 31.0801 25.6437 31.0801 25.4643V20.6943C31.0801 20.515 31.0224 20.3677 30.9071 20.2523C30.7917 20.137 30.6444 20.0793 30.4651 20.0793H24.6951C24.5157 20.0793 24.3684 20.137 24.2531 20.2523C24.1377 20.3677 24.0801 20.5153 24.0801 20.6953V25.4643C24.0801 25.6437 24.1377 25.791 24.2531 25.9063C24.3684 26.0217 24.5161 26.0793 24.6961 26.0793H30.4651ZM27.0801 24.5793C27.4967 24.5793 27.8511 24.4337 28.1431 24.1423C28.4351 23.851 28.5807 23.4967 28.5801 23.0793C28.5794 22.662 28.4337 22.308 28.1431 22.0173C27.8524 21.7267 27.4981 21.5807 27.0801 21.5793C26.6621 21.578 26.3081 21.724 26.0181 22.0173C25.7281 22.3107 25.5821 22.6647 25.5801 23.0793C25.5781 23.494 25.7241 23.8483 26.0181 24.1423C26.3121 24.4363 26.6661 24.582 27.0801 24.5793Z" fill="#007AF5"/>
</svg>
