<svg width="21" height="21" viewBox="0 0 21 21" fill="none" xmlns="http://www.w3.org/2000/svg">
<path d="M12.6875 9.625C12.6875 10.2052 12.457 10.7616 12.0468 11.1718C11.6366 11.582 11.0802 11.8125 10.5 11.8125C9.91984 11.8125 9.36344 11.582 8.9532 11.1718C8.54297 10.7616 8.3125 10.2052 8.3125 9.625C8.3125 9.04484 8.54297 8.48844 8.9532 8.0782C9.36344 7.66797 9.91984 7.4375 10.5 7.4375C11.0802 7.4375 11.6366 7.66797 12.0468 8.0782C12.457 8.48844 12.6875 9.04484 12.6875 9.625Z" stroke="#737791" stroke-width="1.3125" stroke-linecap="round" stroke-linejoin="round"/>
<path d="M19.25 9.625V5.18613C19.25 4.68913 18.9665 4.23938 18.4914 4.09238C17.6662 3.83513 16.1691 3.5 14 3.5C9.9925 3.5 8.92237 4.96737 3.39325 3.871C2.55588 3.70475 1.75 4.32688 1.75 5.18V13.9449C1.75 14.5469 2.16387 15.0763 2.75187 15.2058C6.15125 15.9556 7.96425 15.7955 9.625 15.5076" stroke="#737791" stroke-width="1.3125" stroke-linecap="round" stroke-linejoin="round"/>
<path d="M1.75 7C3.45712 7 4.99187 5.60438 5.18787 4.15975M16.1875 3.9375C16.1875 5.7225 17.7319 7.41037 19.25 7.41037M5.25 15.309C5.25 14.3807 4.88125 13.4905 4.22487 12.8341C3.5685 12.1777 2.67826 11.809 1.75 11.809M12.25 15.75C12.25 15.75 13.125 15.75 14 17.5C14 17.5 16.7799 13.125 19.25 12.25" stroke="#737791" stroke-width="1.3125" stroke-linecap="round" stroke-linejoin="round"/>
</svg>
