<svg width="16" height="16" viewBox="0 0 16 16" fill="none" xmlns="http://www.w3.org/2000/svg">
<path d="M5.66699 12.0001C6.87566 10.6974 9.11166 10.6361 10.3337 12.0001M9.29366 8.00008C9.29366 8.73675 8.71299 9.33341 7.99566 9.33341C7.27899 9.33341 6.69766 8.73675 6.69766 8.00008C6.69766 7.26341 7.27899 6.66675 7.99566 6.66675C8.71233 6.66675 9.29433 7.26341 9.29433 8.00008H9.29366Z" stroke="#404040" stroke-linecap="round"/>
<path d="M6.3335 2.66797C4.57083 2.67464 3.6275 2.73597 3.01683 3.31464C2.3335 3.96197 2.3335 5.00397 2.3335 7.08797V10.246C2.3335 12.33 2.3335 13.3726 3.01683 14.0193C3.70016 14.6673 4.80016 14.6673 7.00016 14.6673H9.00016C11.2002 14.6673 12.3002 14.6673 12.9835 14.02C13.6668 13.372 13.6668 12.33 13.6668 10.2466V7.08797C13.6668 5.00397 13.6668 3.96197 12.9835 3.31464C12.3728 2.73597 11.4302 2.67464 9.66683 2.66797" stroke="#404040" stroke-linecap="round" stroke-linejoin="round"/>
<path d="M6.51515 2.42125C6.57915 2.14459 6.61115 2.00592 6.67248 1.89325C6.74873 1.75919 6.85248 1.64278 6.97691 1.55167C7.10135 1.46056 7.24365 1.3968 7.39448 1.36459C7.52981 1.33325 7.68714 1.33325 8.00048 1.33325C8.31381 1.33325 8.47115 1.33325 8.60648 1.36459C8.7573 1.3968 8.89961 1.46056 9.02404 1.55167C9.14848 1.64278 9.25223 1.75919 9.32848 1.89325C9.38981 2.00659 9.42181 2.14459 9.48581 2.42125L9.54114 2.66125C9.65448 3.15125 9.71114 3.39659 9.62581 3.58525C9.56765 3.71047 9.47309 3.81525 9.35448 3.88592C9.16714 3.99992 8.88848 3.99992 8.33248 3.99992H7.66848C7.11248 3.99992 6.83381 3.99992 6.64648 3.88659C6.52776 3.81574 6.43319 3.71072 6.37515 3.58525C6.28981 3.39659 6.34648 3.15192 6.45981 2.66125L6.51515 2.42125Z" stroke="#404040"/>
</svg>
