<svg width="16" height="16" viewBox="0 0 16 16" fill="none" xmlns="http://www.w3.org/2000/svg">
<path d="M4.70484 1.61187L5.48284 1.37787C5.90904 1.24936 6.36743 1.28029 6.77249 1.46491C7.17755 1.64953 7.5016 1.97522 7.68418 2.38121L8.28551 3.71854C8.44249 4.06774 8.4862 4.45732 8.41052 4.83263C8.33483 5.20794 8.14355 5.55013 7.86351 5.81121L6.86684 6.73987C6.83773 6.767 6.81928 6.80366 6.81484 6.84321C6.78551 7.10787 6.96484 7.62321 7.37884 8.33987C7.67884 8.86054 7.95151 9.22654 8.18284 9.43121C8.34484 9.57454 8.43351 9.60521 8.47151 9.59454L9.81151 9.18454C10.1774 9.07261 10.5692 9.07799 10.932 9.19994C11.2947 9.32188 11.6102 9.55427 11.8342 9.86454L12.6875 11.0485C12.9473 11.4085 13.0676 11.8505 13.0262 12.2925C12.9848 12.7345 12.7843 13.1465 12.4622 13.4519L11.8708 14.0119C11.5574 14.3087 11.1723 14.5194 10.7533 14.6232C10.3342 14.7271 9.89535 14.7207 9.47951 14.6045C7.64351 14.0919 5.99751 12.5425 4.52284 9.98854C3.04684 7.43121 2.52818 5.22854 3.00684 3.37987C3.11429 2.9641 3.32703 2.58301 3.62456 2.27334C3.92208 1.96367 4.29369 1.73586 4.70484 1.61187ZM4.99418 2.56987C4.74743 2.64408 4.52397 2.78059 4.34531 2.96625C4.16666 3.15191 4.03884 3.38046 3.97418 3.62987C3.57284 5.18454 4.03217 7.13721 5.38951 9.48854C6.74551 11.8365 8.20484 13.2105 9.74951 13.6419C9.99903 13.7115 10.2623 13.7153 10.5137 13.6529C10.7652 13.5905 10.9961 13.464 11.1842 13.2859L11.7748 12.7259C11.9214 12.5871 12.0126 12.3998 12.0314 12.1988C12.0503 11.9979 11.9956 11.7969 11.8775 11.6332L11.0242 10.4499C10.9223 10.3087 10.7789 10.2029 10.6139 10.1474C10.4489 10.092 10.2706 10.0895 10.1042 10.1405L8.76084 10.5519C7.98084 10.7839 7.27351 10.1565 6.51351 8.83987C6.00018 7.95321 5.76151 7.26654 5.82151 6.73254C5.85218 6.45521 5.98151 6.19921 6.18484 6.00854L7.18151 5.07987C7.30875 4.96114 7.39562 4.80555 7.42993 4.63493C7.46424 4.46431 7.44428 4.28723 7.37284 4.12854L6.77218 2.79121C6.68917 2.60667 6.54186 2.45863 6.35773 2.37472C6.1736 2.29081 5.96523 2.27677 5.77151 2.33521L4.99418 2.56987Z" fill="#404040"/>
</svg>
