<svg width="21" height="21" viewBox="0 0 21 21" fill="none" xmlns="http://www.w3.org/2000/svg">
<path d="M14.4375 17.3364L12.7378 15.6367L11.8125 16.562L14.4375 19.187L19.6875 13.937L18.7622 13.0117L14.4375 17.3364Z" fill="#737791"/>
<path d="M16.4062 2.78125H14.4375V2.125C14.4365 1.77722 14.2978 1.44399 14.0519 1.19807C13.806 0.952153 13.4728 0.813539 13.125 0.8125H7.875C7.52722 0.813539 7.19399 0.952153 6.94807 1.19807C6.70215 1.44399 6.56354 1.77722 6.5625 2.125V2.78125H4.59375C4.24597 2.78229 3.91274 2.9209 3.66682 3.16682C3.4209 3.41274 3.28229 3.74597 3.28125 4.09375V17.875C3.28229 18.2228 3.4209 18.556 3.66682 18.8019C3.91274 19.0478 4.24597 19.1865 4.59375 19.1875H10.5V17.875H4.59375V4.09375H6.5625V6.0625H14.4375V4.09375H16.4062V11.3125H17.7188V4.09375C17.7177 3.74597 17.5791 3.41274 17.3332 3.16682C17.0873 2.9209 16.754 2.78229 16.4062 2.78125ZM13.125 4.75H7.875V2.125H13.125V4.75Z" fill="#737791"/>
</svg>
