<svg width="21" height="21" viewBox="0 0 21 21" fill="none" xmlns="http://www.w3.org/2000/svg">
<g clip-path="url(#clip0_418_3273)">
<path d="M10.7621 1.31247H6.29963C5.17482 1.31247 4.40963 1.31247 3.81901 1.36234C3.24413 1.40828 2.94882 1.49359 2.74407 1.59859C2.25017 1.85026 1.84861 2.25182 1.59695 2.74572C1.49195 2.95047 1.40663 3.24447 1.3607 3.82066C1.31213 4.40997 1.31082 5.17122 1.31082 6.29997V13.3875C1.31082 14.5123 1.31213 15.2775 1.3607 15.8681C1.40795 16.443 1.49326 16.7383 1.59695 16.943C1.84895 17.4365 2.25057 17.8382 2.74407 18.0902C2.94882 18.1952 3.24413 18.2805 3.81901 18.3264C4.14713 18.3527 4.52776 18.3658 4.99369 18.371C5.16432 18.8435 5.42419 19.2924 5.77594 19.6835C3.91219 19.6809 2.92782 19.6481 2.15345 19.2543C1.41328 18.877 0.811447 18.2751 0.43407 17.535C0.00488281 16.6923 0.00488281 15.5925 0.00488281 13.3875V6.29997C0.00488281 4.09497 0.00488281 2.99247 0.43407 2.15247C0.812908 1.41336 1.41434 0.811932 2.15345 0.433094C2.99607 0.00390629 4.09594 0.00390625 6.30094 0.00390625H10.7634C12.9684 0.00390625 14.0709 0.00390629 14.9109 0.433094C15.65 0.811932 16.2515 1.41336 16.6303 2.15247C16.9453 2.76934 17.0293 3.53059 17.0516 4.76434C16.8943 4.76149 16.737 4.76806 16.5804 4.78403C16.3302 4.4775 16.0366 4.20912 15.7089 3.98734L15.6971 3.82984C15.6499 3.25497 15.5659 2.95966 15.4609 2.75359C15.209 2.26018 14.8075 1.8591 14.3138 1.60778C14.109 1.50278 13.815 1.41747 13.2388 1.37153C12.6482 1.32297 11.8869 1.32166 10.7582 1.32166L10.7621 1.31247Z" fill="#737791"/>
<path d="M10.5922 3.9375H3.28162C3.10757 3.9375 2.94065 4.00664 2.81758 4.12971C2.69451 4.25278 2.62537 4.4197 2.62537 4.59375C2.62537 4.7678 2.69451 4.93472 2.81758 5.05779C2.94065 5.18086 3.10757 5.25 3.28162 5.25H7.31099C8.03245 4.8567 8.85608 4.69106 9.67349 4.77488C9.93862 4.45069 10.2523 4.16719 10.6054 3.9375H10.5922ZM3.28162 7.875H5.00099C4.84685 8.29565 4.76562 8.73952 4.7608 9.1875H3.2908C3.11676 9.1875 2.94984 9.11836 2.82677 8.99529C2.7037 8.87222 2.63455 8.7053 2.63455 8.53125C2.63455 8.3572 2.7037 8.19028 2.82677 8.06721C2.94984 7.94414 3.11676 7.875 3.2908 7.875H3.28162ZM3.39974 11.8125H3.27637C3.10232 11.8125 2.9354 11.8816 2.81233 12.0047C2.68926 12.1278 2.62012 12.2947 2.62012 12.4688C2.62012 12.6428 2.68926 12.8097 2.81233 12.9328C2.9354 13.0559 3.10232 13.125 3.27637 13.125V12.8126C3.27637 12.467 3.31749 12.1336 3.39974 11.8125Z" fill="#737791"/>
<path fill-rule="evenodd" clip-rule="evenodd" d="M13.125 15.75C14.5687 15.75 15.75 14.5753 15.75 13.125C15.75 11.6812 14.5753 10.5 13.125 10.5C11.6812 10.5 10.5 11.6747 10.5 13.125C10.5 14.5687 11.6747 15.75 13.125 15.75ZM13.125 14.4375C13.4731 14.4375 13.8069 14.2992 14.0531 14.0531C14.2992 13.8069 14.4375 13.4731 14.4375 13.125C14.4375 12.7769 14.2992 12.4431 14.0531 12.1969C13.8069 11.9508 13.4731 11.8125 13.125 11.8125C12.7769 11.8125 12.4431 11.9508 12.1969 12.1969C11.9508 12.4431 11.8125 12.7769 11.8125 13.125C11.8125 13.4731 11.9508 13.8069 12.1969 14.0531C12.4431 14.2992 12.7769 14.4375 13.125 14.4375Z" fill="#737791"/>
<path fill-rule="evenodd" clip-rule="evenodd" d="M13.3875 5.25041H12.7654C11.7285 5.25041 10.8623 6.0051 10.7048 6.99604C10.6116 7.03199 10.5193 7.07006 10.4278 7.11023C10.0252 6.82314 9.53362 6.68837 9.04084 6.72996C8.54805 6.77154 8.08606 6.98678 7.7372 7.33729L7.29488 7.7796C6.94531 8.129 6.73073 8.59088 6.68917 9.08338C6.64761 9.57588 6.78175 10.0672 7.06782 10.4702C7.02757 10.5621 6.98951 10.6544 6.95363 10.7472C6.46634 10.8295 6.02386 11.0815 5.70442 11.4586C5.38498 11.8357 5.20915 12.3136 5.20801 12.8078V13.4299C5.20801 14.4707 5.96532 15.333 6.95363 15.5037C6.98863 15.5947 7.02582 15.6848 7.0652 15.774C6.7768 16.1785 6.6411 16.672 6.68219 17.167C6.72328 17.662 6.93851 18.1265 7.28963 18.4778L7.72276 18.9109C8.46038 19.6485 9.61276 19.7247 10.4396 19.1314C10.5254 19.1708 10.612 19.2071 10.6995 19.2404C10.7804 19.7318 11.0334 20.1785 11.4133 20.5007C11.7932 20.8228 12.2752 20.9995 12.7733 20.9991H13.3744C14.4244 20.9991 15.2906 20.2326 15.4613 19.2272C15.547 19.1931 15.6319 19.1577 15.7159 19.1209C16.5401 19.7168 17.6978 19.6433 18.4459 18.9017L18.8672 18.4804C19.6088 17.7389 19.6823 16.5773 19.0864 15.7504C19.124 15.6655 19.1594 15.5807 19.1927 15.4958C19.6876 15.4148 20.1377 15.1604 20.4623 14.7781C20.7869 14.3958 20.9649 13.9104 20.9646 13.4089V12.8078C20.9646 11.7617 20.202 10.8915 19.2058 10.734C19.1718 10.6458 19.136 10.5583 19.0982 10.4715C19.6888 9.65123 19.6153 8.50279 18.8751 7.75466L18.4446 7.32416C18.0932 6.97304 17.6288 6.75781 17.1338 6.71672C16.6388 6.67563 16.1452 6.81133 15.7408 7.09973C15.6515 7.06009 15.5614 7.02246 15.4704 6.98685C15.3877 6.49733 15.1338 6.05311 14.754 5.7334C14.3742 5.41369 13.8932 5.23926 13.3967 5.24123L13.3875 5.25041ZM11.9831 7.35041C11.9831 6.9186 12.3323 6.56948 12.7641 6.56948H13.3862C13.8193 6.56948 14.1711 6.92123 14.1711 7.35435C14.1711 7.72448 14.4323 8.03817 14.7827 8.15892C14.9892 8.22979 15.1896 8.31335 15.3838 8.4096C15.7172 8.57367 16.1267 8.53691 16.3892 8.27441C16.5368 8.12734 16.7367 8.04476 16.945 8.04476C17.1534 8.04476 17.3533 8.12734 17.5009 8.27441L17.9327 8.70623C18.0808 8.85461 18.164 9.0557 18.164 9.26535C18.164 9.47501 18.0808 9.6761 17.9327 9.82448C17.6689 10.0883 17.6308 10.4978 17.7936 10.8325C17.8854 11.0224 17.9659 11.2179 18.0351 11.4192C18.1571 11.7735 18.4734 12.0387 18.8475 12.0387C19.2846 12.0387 19.6389 12.393 19.6389 12.8301V13.4312C19.6389 13.6422 19.5551 13.8445 19.406 13.9936C19.2568 14.1428 19.0545 14.2266 18.8436 14.2266C18.4682 14.2266 18.1506 14.4917 18.0272 14.8448C17.9589 15.0425 17.8793 15.2346 17.7883 15.421C17.6243 15.7583 17.661 16.1717 17.9274 16.4369C18.0015 16.5106 18.0602 16.5983 18.1002 16.6948C18.1403 16.7913 18.1609 16.8948 18.1609 16.9993C18.1609 17.1038 18.1403 17.2072 18.1002 17.3037C18.0602 17.4002 18.0015 17.4879 17.9274 17.5617L17.5061 17.983C17.4324 18.057 17.3447 18.1157 17.2482 18.1558C17.1517 18.1958 17.0482 18.2165 16.9437 18.2165C16.8392 18.2165 16.7358 18.1958 16.6393 18.1558C16.5427 18.1157 16.4551 18.057 16.3813 17.983C16.1162 17.7179 15.7028 17.6798 15.3654 17.8439C15.1791 17.9349 14.987 18.0145 14.7893 18.0827C14.4349 18.2061 14.1698 18.5237 14.1698 18.8991C14.1698 19.11 14.086 19.3124 13.9368 19.4615C13.7876 19.6107 13.5853 19.6945 13.3744 19.6945H12.7733C12.5634 19.6945 12.3621 19.6111 12.2136 19.4627C12.0652 19.3142 11.9818 19.1129 11.9818 18.903C11.9818 18.529 11.7167 18.2114 11.3623 18.0906C11.1621 18.022 10.9661 17.9414 10.7756 17.8491C10.4409 17.6864 10.0314 17.7244 9.76763 17.9869C9.61925 18.135 9.41816 18.2182 9.20851 18.2182C8.99885 18.2182 8.79777 18.135 8.64938 17.9869L8.21757 17.5551C8.0705 17.4075 7.98792 17.2076 7.98792 16.9993C7.98792 16.7909 8.0705 16.591 8.21757 16.4434C8.48007 16.1809 8.51682 15.7714 8.35276 15.438C8.25683 15.243 8.17311 15.0423 8.10207 14.8369C7.98132 14.4865 7.66763 14.2253 7.29751 14.2253C7.08956 14.2246 6.89032 14.1417 6.74328 13.9946C6.59624 13.8476 6.51332 13.6484 6.51263 13.4404V12.8183C6.51263 12.3865 6.86176 12.0374 7.29357 12.0374C7.6637 12.0374 7.97607 11.7762 8.09551 11.4257C8.16699 11.2167 8.2516 11.0124 8.34882 10.8141C8.51157 10.4834 8.47482 10.0778 8.21363 9.8166C8.06728 9.66995 7.98509 9.47123 7.98509 9.26404C7.98509 9.05685 8.06728 8.85813 8.21363 8.71148L8.65595 8.26917C8.8026 8.12281 9.00132 8.04062 9.20851 8.04062C9.41569 8.04062 9.61442 8.12281 9.76107 8.26917C10.0223 8.53035 10.4278 8.5671 10.7586 8.40435C10.9554 8.3081 11.1593 8.22366 11.3702 8.15104C11.7206 8.03292 11.9818 7.71923 11.9818 7.3491L11.9831 7.35041Z" fill="#737791"/>
</g>
<defs>
<clipPath id="clip0_418_3273">
<rect width="21" height="21" fill="white"/>
</clipPath>
</defs>
</svg>
