<svg width="16" height="16" viewBox="0 0 16 16" fill="none" xmlns="http://www.w3.org/2000/svg">
<path d="M1.3335 2.66675V13.3334M3.3335 2.66675V13.3334M10.0002 2.66675V13.3334M5.3335 12.0001V4.00008C5.3335 3.37141 5.3335 3.05741 5.52883 2.86208C5.72416 2.66675 6.03816 2.66675 6.66683 2.66675C7.2955 2.66675 7.6095 2.66675 7.80483 2.86208C8.00016 3.05741 8.00016 3.37141 8.00016 4.00008V12.0001C8.00016 12.6287 8.00016 12.9427 7.80483 13.1381C7.6095 13.3334 7.2955 13.3334 6.66683 13.3334C6.03816 13.3334 5.72416 13.3334 5.52883 13.1381C5.3335 12.9427 5.3335 12.6287 5.3335 12.0001ZM12.0002 12.0001V4.00008C12.0002 3.37141 12.0002 3.05741 12.1955 2.86208C12.3908 2.66675 12.7048 2.66675 13.3335 2.66675C13.9622 2.66675 14.2762 2.66675 14.4715 2.86208C14.6668 3.05741 14.6668 3.37141 14.6668 4.00008V12.0001C14.6668 12.6287 14.6668 12.9427 14.4715 13.1381C14.2762 13.3334 13.9622 13.3334 13.3335 13.3334C12.7048 13.3334 12.3908 13.3334 12.1955 13.1381C12.0002 12.9427 12.0002 12.6287 12.0002 12.0001Z" stroke="#404040" stroke-linecap="round" stroke-linejoin="round"/>
</svg>
