<svg width="22" height="18" viewBox="0 0 22 18" fill="none" xmlns="http://www.w3.org/2000/svg">
<path d="M7.75 1.21005C8.72004 0.901862 9.73218 0.746668 10.75 0.750054C14.932 0.750054 17.778 3.25005 19.475 5.45405C20.325 6.56005 20.75 7.11105 20.75 8.75005C20.75 10.3901 20.325 10.9411 19.475 12.0461C17.778 14.2501 14.932 16.7501 10.75 16.7501C6.568 16.7501 3.722 14.2501 2.025 12.0461C1.175 10.9421 0.75 10.3891 0.75 8.75005C0.75 7.11005 1.175 6.55905 2.025 5.45405C2.5435 4.77688 3.12074 4.14677 3.75 3.57105" stroke="#757575" stroke-width="1.5" stroke-linecap="round"/>
<path d="M13.75 8.75C13.75 9.54565 13.4339 10.3087 12.8713 10.8713C12.3087 11.4339 11.5456 11.75 10.75 11.75C9.95435 11.75 9.19129 11.4339 8.62868 10.8713C8.06607 10.3087 7.75 9.54565 7.75 8.75C7.75 7.95435 8.06607 7.19129 8.62868 6.62868C9.19129 6.06607 9.95435 5.75 10.75 5.75C11.5456 5.75 12.3087 6.06607 12.8713 6.62868C13.4339 7.19129 13.75 7.95435 13.75 8.75Z" stroke="#757575" stroke-width="1.5"/>
</svg>
