<svg width="16" height="16" viewBox="0 0 16 16" fill="none" xmlns="http://www.w3.org/2000/svg">
<path d="M3.07733 14.0002C2.77022 14.0002 2.514 13.8975 2.30867 13.6922C2.10333 13.4869 2.00044 13.2306 2 12.9235V7.07686C2 6.77019 2.10289 6.51419 2.30867 6.30886C2.51444 6.10353 2.77044 6.00064 3.07667 6.00019H12.9233C13.23 6.00019 13.486 6.10308 13.6913 6.30886C13.8967 6.51464 13.9996 6.77086 14 7.07753V12.9235C14 13.2302 13.8971 13.4864 13.6913 13.6922C13.4856 13.898 13.2296 14.0006 12.9233 14.0002H3.07733ZM3.07733 13.3335H12.9233C13.0256 13.3335 13.1196 13.2909 13.2053 13.2055C13.2911 13.1202 13.3338 13.026 13.3333 12.9229V7.07753C13.3333 6.97486 13.2907 6.88064 13.2053 6.79486C13.12 6.70908 13.026 6.66641 12.9233 6.66686H3.07667C2.97444 6.66686 2.88044 6.70953 2.79467 6.79486C2.70889 6.88019 2.66622 6.97441 2.66667 7.07753V12.9235C2.66667 13.0257 2.70933 13.1197 2.79467 13.2055C2.88 13.2913 2.974 13.334 3.07667 13.3335M5.48733 12.5135H10.5127V11.4869H5.48733V12.5135ZM3.48733 10.5135H4.51267V9.48686H3.48733V10.5135ZM5.48733 10.5135H6.51267V9.48686H5.48733V10.5135ZM7.48733 10.5135H8.51267V9.48686H7.48733V10.5135ZM9.48733 10.5135H10.5127V9.48686H9.48733V10.5135ZM11.4873 10.5135H12.5127V9.48686H11.4873V10.5135ZM3.48733 8.51353H4.51267V7.48686H3.48733V8.51353ZM5.48733 8.51353H6.51267V7.48686H5.48733V8.51353ZM7.48733 8.51353H8.51267V7.48686H7.48733V8.51353ZM9.48733 8.51353H10.5127V7.48686H9.48733V8.51353ZM11.4873 8.51353H12.5127V7.48686H11.4873V8.51353ZM4.33333 4.51352V1.84686H5V3.26019C5.33867 2.82686 5.76133 2.48286 6.268 2.22819C6.77467 1.97352 7.32644 1.84619 7.92333 1.84619C8.76422 1.84619 9.51622 2.09397 10.1793 2.58952C10.8429 3.08464 11.2867 3.72575 11.5107 4.51286H10.8107C10.5951 3.91552 10.2233 3.43286 9.69533 3.06486C9.16778 2.69686 8.57711 2.51286 7.92333 2.51286C7.402 2.51286 6.91867 2.6333 6.47333 2.87419C6.028 3.11464 5.67156 3.43864 5.404 3.84619H7V4.51286L4.33333 4.51352Z" fill="#404040"/>
</svg>
