<svg width="16" height="16" viewBox="0 0 16 16" fill="none" xmlns="http://www.w3.org/2000/svg">
<path d="M7.99967 6.66659C9.47243 6.66659 10.6663 5.47268 10.6663 3.99992C10.6663 2.52716 9.47243 1.33325 7.99967 1.33325C6.52692 1.33325 5.33301 2.52716 5.33301 3.99992C5.33301 5.47268 6.52692 6.66659 7.99967 6.66659Z" stroke="#404040"/>
<path d="M13.3318 12.0001C13.3327 11.8907 13.3332 11.7796 13.3332 11.6667C13.3332 10.0101 10.9452 8.66675 7.99984 8.66675C5.0545 8.66675 2.6665 10.0101 2.6665 11.6667C2.6665 13.3234 2.6665 14.6667 7.99984 14.6667C9.48717 14.6667 10.5598 14.5621 11.3332 14.3754" stroke="#404040" stroke-linecap="round"/>
</svg>
