<svg width="47" height="47" viewBox="0 0 47 47" fill="none" xmlns="http://www.w3.org/2000/svg">
<rect width="46.2257" height="46.2257" rx="23.1129" fill="#D6EBFF"/>
<path d="M28.8633 14.1128C29.7252 14.1128 30.5519 14.4552 31.1614 15.0647C31.7709 15.6742 32.1133 16.5008 32.1133 17.3628V28.8628C32.1133 29.7247 31.7709 30.5514 31.1614 31.1609C30.5519 31.7704 29.7252 32.1128 28.8633 32.1128H17.3633C16.5013 32.1128 15.6747 31.7704 15.0652 31.1609C14.4557 30.5514 14.1133 29.7247 14.1133 28.8628V17.3628C14.1133 16.5008 14.4557 15.6742 15.0652 15.0647C15.6747 14.4552 16.5013 14.1128 17.3633 14.1128H28.8633ZM28.8633 15.6128H17.3633C16.8992 15.6128 16.454 15.7972 16.1258 16.1254C15.7977 16.4535 15.6133 16.8987 15.6133 17.3628V28.8628C15.6133 29.8288 16.3973 30.6128 17.3633 30.6128H28.8633C29.3274 30.6128 29.7725 30.4284 30.1007 30.1002C30.4289 29.772 30.6133 29.3269 30.6133 28.8628V17.3628C30.6133 16.8987 30.4289 16.4535 30.1007 16.1254C29.7725 15.7972 29.3274 15.6128 28.8633 15.6128ZM27.3633 22.1128C27.5622 22.1128 27.753 22.1918 27.8936 22.3325C28.0343 22.4731 28.1133 22.6639 28.1133 22.8628V27.3628C28.1133 27.5617 28.0343 27.7525 27.8936 27.8931C27.753 28.0338 27.5622 28.1128 27.3633 28.1128H18.8633C18.6644 28.1128 18.4736 28.0338 18.333 27.8931C18.1923 27.7525 18.1133 27.5617 18.1133 27.3628V22.8628C18.1133 22.6639 18.1923 22.4731 18.333 22.3325C18.4736 22.1918 18.6644 22.1128 18.8633 22.1128H27.3633ZM26.6133 23.6128H19.6133V26.6128H26.6133V23.6128ZM18.8633 18.3628H27.3633C27.5533 18.3629 27.7362 18.435 27.8751 18.5648C28.0139 18.6945 28.0984 18.8721 28.1113 19.0617C28.1243 19.2513 28.0648 19.4387 27.9448 19.5861C27.8249 19.7335 27.6535 19.8299 27.4653 19.8558L27.3633 19.8628H18.8633C18.6733 19.8627 18.4903 19.7905 18.3515 19.6608C18.2126 19.5311 18.1282 19.3535 18.1153 19.1639C18.1023 18.9743 18.1618 18.7869 18.2817 18.6395C18.4016 18.4921 18.573 18.3957 18.7613 18.3698L18.8633 18.3628Z" fill="#007AF5"/>
</svg>
