<svg width="21" height="21" viewBox="0 0 21 21" fill="none" xmlns="http://www.w3.org/2000/svg">
<path d="M8.7499 17.6801C7.98853 17.5066 7.25719 17.2208 6.5799 16.8322M12.2499 2.32031C13.9895 2.71763 15.5427 3.69379 16.6552 5.08899C17.7677 6.48419 18.3735 8.21576 18.3735 10.0002C18.3735 11.7846 17.7677 13.5162 16.6552 14.9114C15.5427 16.3066 13.9895 17.2828 12.2499 17.6801M4.00652 14.4566C3.52973 13.7628 3.16725 12.9971 2.9329 12.1886M2.7334 8.68769C2.8734 7.85644 3.1429 7.06894 3.5209 6.34706L3.66877 6.08019M6.04352 3.50681C6.8627 2.94408 7.78099 2.54149 8.7499 2.32031" stroke="#737791" stroke-width="1.75" stroke-linecap="round" stroke-linejoin="round"/>
</svg>
