<svg width="5" height="4" viewBox="0 0 5 4" fill="none" xmlns="http://www.w3.org/2000/svg">
<path d="M0.681161 1.588C0.745161 1.31133 0.777161 1.17267 0.838494 1.06C0.914745 0.925941 1.01849 0.809532 1.14293 0.718417C1.26736 0.627303 1.40967 0.563546 1.56049 0.531333C1.69583 0.5 1.85316 0.5 2.16649 0.5C2.47983 0.5 2.63716 0.5 2.77249 0.531333C2.92332 0.563546 3.06562 0.627303 3.19006 0.718417C3.31449 0.809532 3.41824 0.925941 3.49449 1.06C3.55583 1.17333 3.58783 1.31133 3.65183 1.588L3.70716 1.828C3.82049 2.318 3.87716 2.56333 3.79183 2.752C3.73367 2.87722 3.63911 2.982 3.52049 3.05267C3.33316 3.16667 3.05449 3.16667 2.49849 3.16667H1.83449C1.27849 3.16667 0.999827 3.16667 0.812494 3.05333C0.693778 2.98249 0.599209 2.87747 0.541161 2.752C0.455827 2.56333 0.512494 2.31867 0.625827 1.828L0.681161 1.588Z" stroke="#404040"/>
</svg>
