<svg width="14" height="14" viewBox="0 0 14 14" fill="none" xmlns="http://www.w3.org/2000/svg">
<path d="M13.375 13H11.75V0.75H12.375C12.4745 0.75 12.5698 0.710491 12.6402 0.640165C12.7105 0.569839 12.75 0.474456 12.75 0.375C12.75 0.275544 12.7105 0.180161 12.6402 0.109835C12.5698 0.0395088 12.4745 0 12.375 0H1.375C1.27554 0 1.18016 0.0395088 1.10983 0.109835C1.03951 0.180161 1 0.275544 1 0.375C1 0.474456 1.03951 0.569839 1.10983 0.640165C1.18016 0.710491 1.27554 0.75 1.375 0.75H2V13H0.375C0.275544 13 0.180161 13.0395 0.109835 13.1098C0.0395088 13.1802 0 13.2755 0 13.375C0 13.4745 0.0395088 13.5698 0.109835 13.6402C0.180161 13.7105 0.275544 13.75 0.375 13.75H13.375C13.4745 13.75 13.5698 13.7105 13.6402 13.6402C13.7105 13.5698 13.75 13.4745 13.75 13.375C13.75 13.2755 13.7105 13.1802 13.6402 13.1098C13.5698 13.0395 13.4745 13 13.375 13ZM2.75 0.75H11V13H8.75V10.375C8.75 10.2755 8.71049 10.1802 8.64017 10.1098C8.56984 10.0395 8.47446 10 8.375 10H5.375C5.27554 10 5.18016 10.0395 5.10984 10.1098C5.03951 10.1802 5 10.2755 5 10.375V13H2.75V0.75ZM8 13H5.75V10.75H8V13ZM4.5 2.875C4.5 2.77554 4.53951 2.68016 4.60984 2.60983C4.68016 2.53951 4.77554 2.5 4.875 2.5H5.875C5.97446 2.5 6.06984 2.53951 6.14016 2.60983C6.21049 2.68016 6.25 2.77554 6.25 2.875C6.25 2.97446 6.21049 3.06984 6.14016 3.14016C6.06984 3.21049 5.97446 3.25 5.875 3.25H4.875C4.77554 3.25 4.68016 3.21049 4.60984 3.14016C4.53951 3.06984 4.5 2.97446 4.5 2.875ZM7.5 2.875C7.5 2.77554 7.53951 2.68016 7.60983 2.60983C7.68016 2.53951 7.77554 2.5 7.875 2.5H8.875C8.97446 2.5 9.06984 2.53951 9.14017 2.60983C9.21049 2.68016 9.25 2.77554 9.25 2.875C9.25 2.97446 9.21049 3.06984 9.14017 3.14016C9.06984 3.21049 8.97446 3.25 8.875 3.25H7.875C7.77554 3.25 7.68016 3.21049 7.60983 3.14016C7.53951 3.06984 7.5 2.97446 7.5 2.875ZM4.5 5.375C4.5 5.27554 4.53951 5.18016 4.60984 5.10984C4.68016 5.03951 4.77554 5 4.875 5H5.875C5.97446 5 6.06984 5.03951 6.14016 5.10984C6.21049 5.18016 6.25 5.27554 6.25 5.375C6.25 5.47446 6.21049 5.56984 6.14016 5.64016C6.06984 5.71049 5.97446 5.75 5.875 5.75H4.875C4.77554 5.75 4.68016 5.71049 4.60984 5.64016C4.53951 5.56984 4.5 5.47446 4.5 5.375ZM7.5 5.375C7.5 5.27554 7.53951 5.18016 7.60983 5.10984C7.68016 5.03951 7.77554 5 7.875 5H8.875C8.97446 5 9.06984 5.03951 9.14017 5.10984C9.21049 5.18016 9.25 5.27554 9.25 5.375C9.25 5.47446 9.21049 5.56984 9.14017 5.64016C9.06984 5.71049 8.97446 5.75 8.875 5.75H7.875C7.77554 5.75 7.68016 5.71049 7.60983 5.64016C7.53951 5.56984 7.5 5.47446 7.5 5.375ZM4.875 8.25C4.77554 8.25 4.68016 8.21049 4.60984 8.14017C4.53951 8.06984 4.5 7.97446 4.5 7.875C4.5 7.77554 4.53951 7.68016 4.60984 7.60983C4.68016 7.53951 4.77554 7.5 4.875 7.5H5.875C5.97446 7.5 6.06984 7.53951 6.14016 7.60983C6.21049 7.68016 6.25 7.77554 6.25 7.875C6.25 7.97446 6.21049 8.06984 6.14016 8.14017C6.06984 8.21049 5.97446 8.25 5.875 8.25H4.875ZM7.5 7.875C7.5 7.77554 7.53951 7.68016 7.60983 7.60983C7.68016 7.53951 7.77554 7.5 7.875 7.5H8.875C8.97446 7.5 9.06984 7.53951 9.14017 7.60983C9.21049 7.68016 9.25 7.77554 9.25 7.875C9.25 7.97446 9.21049 8.06984 9.14017 8.14017C9.06984 8.21049 8.97446 8.25 8.875 8.25H7.875C7.77554 8.25 7.68016 8.21049 7.60983 8.14017C7.53951 8.06984 7.5 7.97446 7.5 7.875Z" fill="#404040"/>
</svg>
