<svg width="47" height="47" viewBox="0 0 47 47" fill="none" xmlns="http://www.w3.org/2000/svg">
<rect width="46.2257" height="46.2257" rx="23.1129" fill="#D6EBFF"/>
<path d="M20.9672 20.9667L20.6132 20.6127M25.6172 25.6167L25.2632 25.2627M20.6132 25.6127L25.6132 20.6127M20.8262 14.7527C21.4072 14.2577 21.6982 14.0097 22.0022 13.8647C22.3492 13.6992 22.7288 13.6133 23.1132 13.6133C23.4977 13.6133 23.8773 13.6992 24.2242 13.8647C24.5282 14.0097 24.8192 14.2577 25.4002 14.7527C25.9992 15.2627 26.6072 15.5207 27.4072 15.5837C28.1682 15.6447 28.5492 15.6757 28.8672 15.7877C29.6012 16.0477 30.1792 16.6247 30.4382 17.3597C30.5502 17.6767 30.5812 18.0577 30.6422 18.8197C30.7052 19.6197 30.9622 20.2267 31.4722 20.8257C31.9682 21.4067 32.2162 21.6977 32.3612 22.0017C32.6972 22.7047 32.6972 23.5217 32.3612 24.2237C32.2162 24.5277 31.9682 24.8187 31.4732 25.3997C30.9777 25.9558 30.6848 26.6631 30.6422 27.4067C30.5812 28.1677 30.5502 28.5487 30.4382 28.8667C30.3099 29.2292 30.1021 29.5584 29.8301 29.8302C29.5581 30.102 29.2288 30.3096 28.8662 30.4377C28.5492 30.5497 28.1682 30.5807 27.4062 30.6417C26.6062 30.7047 25.9992 30.9617 25.4002 31.4717C24.8192 31.9677 24.5282 32.2157 24.2242 32.3607C23.8773 32.5263 23.4977 32.6122 23.1132 32.6122C22.7288 32.6122 22.3492 32.5263 22.0022 32.3607C21.6982 32.2157 21.4072 31.9677 20.8262 31.4727C20.2702 30.9772 19.5629 30.6843 18.8192 30.6417C18.0582 30.5807 17.6772 30.5497 17.3592 30.4377C16.9968 30.3094 16.6676 30.1016 16.3958 29.8296C16.124 29.5576 15.9164 29.2283 15.7882 28.8657C15.6762 28.5487 15.6452 28.1677 15.5842 27.4057C15.5417 26.6626 15.2492 25.9557 14.7542 25.3997C14.2582 24.8187 14.0102 24.5277 13.8642 24.2237C13.6989 23.8767 13.6131 23.4971 13.6133 23.1126C13.6135 22.7282 13.6995 22.3486 13.8652 22.0017C14.0102 21.6977 14.2582 21.4067 14.7532 20.8257C15.2732 20.2147 15.5222 19.6027 15.5842 18.8187C15.6452 18.0577 15.6762 17.6767 15.7882 17.3587C15.9166 16.9963 16.1244 16.6671 16.3964 16.3953C16.6684 16.1235 16.9977 15.9159 17.3602 15.7877C17.6772 15.6757 18.0582 15.6447 18.8202 15.5837C19.5634 15.5412 20.2703 15.2477 20.8262 14.7527Z" stroke="#007AF5" stroke-width="1.5" stroke-linecap="round" stroke-linejoin="round"/>
</svg>
