<svg width="21" height="21" viewBox="0 0 21 21" fill="none" xmlns="http://www.w3.org/2000/svg">
<path d="M14.1746 13.6502C14.0354 13.6502 13.9018 13.7055 13.8034 13.804C13.7049 13.9024 13.6496 14.036 13.6496 14.1752C13.6496 14.3144 13.7049 14.448 13.8034 14.5464C13.9018 14.6449 14.0354 14.7002 14.1746 14.7002H16.2746C16.4138 14.7002 16.5474 14.6449 16.6458 14.5464C16.7443 14.448 16.7996 14.3144 16.7996 14.1752C16.7996 14.036 16.7443 13.9024 16.6458 13.804C16.5474 13.7055 16.4138 13.6502 16.2746 13.6502H14.1746ZM2.09961 7.0877C2.09961 6.32188 2.40383 5.58744 2.94534 5.04592C3.48685 4.50441 4.2213 4.2002 4.98711 4.2002H16.0121C16.7779 4.2002 17.5124 4.50441 18.0539 5.04592C18.5954 5.58744 18.8996 6.32188 18.8996 7.0877V13.9127C18.8996 14.6785 18.5954 15.413 18.0539 15.9545C17.5124 16.496 16.7779 16.8002 16.0121 16.8002H4.98711C4.2213 16.8002 3.48685 16.496 2.94534 15.9545C2.40383 15.413 2.09961 14.6785 2.09961 13.9127V7.0877ZM4.98711 5.2502C4.49977 5.2502 4.0324 5.44379 3.6878 5.78839C3.3432 6.13298 3.14961 6.60036 3.14961 7.0877V8.4002H17.8496V7.0877C17.8496 6.60036 17.656 6.13298 17.3114 5.78839C16.9668 5.44379 16.4994 5.2502 16.0121 5.2502H4.98711ZM17.8496 9.4502H3.14961V13.9127C3.14961 14.927 3.97281 15.7502 4.98711 15.7502H16.0121C16.4994 15.7502 16.9668 15.5566 17.3114 15.212C17.656 14.8674 17.8496 14.4 17.8496 13.9127V9.4502Z" fill="#737791"/>
</svg>
