<svg width="47" height="47" viewBox="0 0 47 47" fill="none" xmlns="http://www.w3.org/2000/svg">
<rect width="46.2257" height="46.2257" rx="23.1129" fill="#D6EBFF"/>
<path d="M20.9668 20.9667L20.6128 20.6127M25.6168 25.6167L25.2628 25.2627M20.6128 25.6127L25.6128 20.6127M20.8258 14.7527C21.4068 14.2577 21.6978 14.0097 22.0018 13.8647C22.3487 13.6992 22.7283 13.6133 23.1128 13.6133C23.4972 13.6133 23.8768 13.6992 24.2238 13.8647C24.5278 14.0097 24.8188 14.2577 25.3998 14.7527C25.9988 15.2627 26.6068 15.5207 27.4068 15.5837C28.1678 15.6447 28.5488 15.6757 28.8668 15.7877C29.6008 16.0477 30.1788 16.6247 30.4378 17.3597C30.5498 17.6767 30.5808 18.0577 30.6418 18.8197C30.7048 19.6197 30.9618 20.2267 31.4718 20.8257C31.9678 21.4067 32.2158 21.6977 32.3608 22.0017C32.6968 22.7047 32.6968 23.5217 32.3608 24.2237C32.2158 24.5277 31.9678 24.8187 31.4728 25.3997C30.9772 25.9558 30.6843 26.6631 30.6418 27.4067C30.5808 28.1677 30.5498 28.5487 30.4378 28.8667C30.3094 29.2292 30.1016 29.5584 29.8296 29.8302C29.5576 30.102 29.2283 30.3096 28.8658 30.4377C28.5488 30.5497 28.1678 30.5807 27.4058 30.6417C26.6058 30.7047 25.9988 30.9617 25.3998 31.4717C24.8188 31.9677 24.5278 32.2157 24.2238 32.3607C23.8768 32.5263 23.4972 32.6122 23.1128 32.6122C22.7283 32.6122 22.3487 32.5263 22.0018 32.3607C21.6978 32.2157 21.4068 31.9677 20.8258 31.4727C20.2697 30.9772 19.5624 30.6843 18.8188 30.6417C18.0578 30.5807 17.6768 30.5497 17.3588 30.4377C16.9963 30.3094 16.6671 30.1016 16.3953 29.8296C16.1235 29.5576 15.9159 29.2283 15.7878 28.8657C15.6758 28.5487 15.6448 28.1677 15.5838 27.4057C15.5412 26.6626 15.2487 25.9557 14.7538 25.3997C14.2578 24.8187 14.0098 24.5277 13.8638 24.2237C13.6984 23.8767 13.6126 23.4971 13.6128 23.1126C13.613 22.7282 13.6991 22.3486 13.8648 22.0017C14.0098 21.6977 14.2578 21.4067 14.7528 20.8257C15.2728 20.2147 15.5218 19.6027 15.5838 18.8187C15.6448 18.0577 15.6758 17.6767 15.7878 17.3587C15.9162 16.9963 16.1239 16.6671 16.3959 16.3953C16.6679 16.1235 16.9972 15.9159 17.3598 15.7877C17.6768 15.6757 18.0578 15.6447 18.8198 15.5837C19.5629 15.5412 20.2698 15.2477 20.8258 14.7527Z" stroke="#007AF5" stroke-width="1.5" stroke-linecap="round" stroke-linejoin="round"/>
</svg>
