<svg width="16" height="16" viewBox="0 0 16 16" fill="none" xmlns="http://www.w3.org/2000/svg">
<path d="M12.9227 14.0002C13.2298 14.0002 13.486 13.8975 13.6913 13.6922C13.8967 13.4869 13.9996 13.2306 14 12.9235V7.07686C14 6.77019 13.8971 6.51419 13.6913 6.30886C13.4856 6.10353 13.2296 6.00064 12.9233 6.00019H3.07667C2.77 6.00019 2.514 6.10308 2.30867 6.30886C2.10333 6.51464 2.00044 6.77086 2 7.07753V12.9235C2 13.2302 2.10289 13.4864 2.30867 13.6922C2.51444 13.898 2.77044 14.0006 3.07667 14.0002H12.9227ZM12.9227 13.3335H3.07667C2.97444 13.3335 2.88044 13.2909 2.79467 13.2055C2.70889 13.1202 2.66622 13.026 2.66667 12.9229V7.07753C2.66667 6.97486 2.70933 6.88064 2.79467 6.79486C2.88 6.70908 2.974 6.66641 3.07667 6.66686H12.9233C13.0256 6.66686 13.1196 6.70953 13.2053 6.79486C13.2911 6.88019 13.3338 6.97441 13.3333 7.07753V12.9235C13.3333 13.0257 13.2907 13.1197 13.2053 13.2055C13.12 13.2913 13.026 13.334 12.9233 13.3335M10.5127 12.5135H5.48733V11.4869H10.5127V12.5135ZM12.5127 10.5135H11.4873V9.48686H12.5127V10.5135ZM10.5127 10.5135H9.48733V9.48686H10.5127V10.5135ZM8.51267 10.5135H7.48733V9.48686H8.51267V10.5135ZM6.51267 10.5135H5.48733V9.48686H6.51267V10.5135ZM4.51267 10.5135H3.48733V9.48686H4.51267V10.5135ZM12.5127 8.51353H11.4873V7.48686H12.5127V8.51353ZM10.5127 8.51353H9.48733V7.48686H10.5127V8.51353ZM8.51267 8.51353H7.48733V7.48686H8.51267V8.51353ZM6.51267 8.51353H5.48733V7.48686H6.51267V8.51353ZM4.51267 8.51353H3.48733V7.48686H4.51267V8.51353ZM11.6667 4.51352V1.84686H11V3.26019C10.6613 2.82686 10.2387 2.48286 9.732 2.22819C9.22533 1.97352 8.67356 1.84619 8.07667 1.84619C7.23578 1.84619 6.48378 2.09397 5.82067 2.58952C5.15711 3.08464 4.71333 3.72575 4.48933 4.51286H5.18933C5.40489 3.91552 5.77667 3.43286 6.30467 3.06486C6.83222 2.69686 7.42289 2.51286 8.07667 2.51286C8.598 2.51286 9.08133 2.6333 9.52667 2.87419C9.972 3.11464 10.3284 3.43864 10.596 3.84619H9V4.51286L11.6667 4.51352Z" fill="#404040"/>
</svg>
