<svg width="47" height="47" viewBox="0 0 47 47" fill="none" xmlns="http://www.w3.org/2000/svg">
<rect width="46.2257" height="46.2257" rx="23.1129" fill="#D6EBFF"/>
<path d="M16.1128 28.1128V30.1128V16.1128V28.1128ZM16.7288 31.1128C16.2808 31.1128 15.8995 30.9555 15.5848 30.6408C15.2701 30.3261 15.1128 29.9451 15.1128 29.4978V16.7278C15.1128 16.2811 15.2701 15.9001 15.5848 15.5848C15.8995 15.2701 16.2808 15.1128 16.7288 15.1128H29.4978C29.9445 15.1128 30.3255 15.2701 30.6408 15.5848C30.9555 15.8995 31.1128 16.2808 31.1128 16.7288V19.6708H30.1128V16.7288C30.1128 16.5488 30.0551 16.4011 29.9398 16.2858C29.8245 16.1705 29.6771 16.1128 29.4978 16.1128H16.7278C16.5485 16.1128 16.4011 16.1705 16.2858 16.2858C16.1705 16.4011 16.1128 16.5488 16.1128 16.7288V29.4978C16.1128 29.6771 16.1705 29.8245 16.2858 29.9398C16.4011 30.0551 16.5488 30.1128 16.7288 30.1128H29.4978C29.6771 30.1128 29.8245 30.0551 29.9398 29.9398C30.0551 29.8245 30.1128 29.6771 30.1128 29.4978V26.5548H31.1128V29.4978C31.1128 29.9445 30.9555 30.3255 30.6408 30.6408C30.3261 30.9555 29.9451 31.1128 29.4978 31.1128H16.7288ZM24.7288 27.1128C24.2808 27.1128 23.8995 26.9555 23.5848 26.6408C23.2701 26.3261 23.1128 25.9451 23.1128 25.4978V20.7278C23.1128 20.2811 23.2701 19.9001 23.5848 19.5848C23.8995 19.2701 24.2808 19.1128 24.7288 19.1128H30.4978C30.9445 19.1128 31.3255 19.2701 31.6408 19.5848C31.9555 19.8995 32.1128 20.2808 32.1128 20.7288V25.4978C32.1128 25.9445 31.9555 26.3255 31.6408 26.6408C31.3261 26.9555 30.9451 27.1128 30.4978 27.1128H24.7288ZM30.4978 26.1128C30.6771 26.1128 30.8245 26.0551 30.9398 25.9398C31.0551 25.8245 31.1128 25.6771 31.1128 25.4978V20.7278C31.1128 20.5485 31.0551 20.4011 30.9398 20.2858C30.8245 20.1705 30.6771 20.1128 30.4978 20.1128H24.7278C24.5485 20.1128 24.4011 20.1705 24.2858 20.2858C24.1705 20.4011 24.1128 20.5488 24.1128 20.7288V25.4978C24.1128 25.6771 24.1705 25.8245 24.2858 25.9398C24.4011 26.0551 24.5488 26.1128 24.7288 26.1128H30.4978ZM27.1128 24.6128C27.5295 24.6128 27.8838 24.4671 28.1758 24.1758C28.4678 23.8845 28.6135 23.5301 28.6128 23.1128C28.6121 22.6955 28.4665 22.3415 28.1758 22.0508C27.8851 21.7601 27.5308 21.6141 27.1128 21.6128C26.6948 21.6115 26.3408 21.7575 26.0508 22.0508C25.7608 22.3441 25.6148 22.6981 25.6128 23.1128C25.6108 23.5275 25.7568 23.8818 26.0508 24.1758C26.3448 24.4698 26.6988 24.6155 27.1128 24.6128Z" fill="#007AF5"/>
</svg>
