<svg width="21" height="21" viewBox="0 0 21 21" fill="none" xmlns="http://www.w3.org/2000/svg">
<path d="M5.36637 18.375C4.33562 18.375 3.5 17.5175 3.5 16.4587V8.757C3.5 8.17512 3.75813 7.62387 4.2 7.26075L9.33362 3.045C9.66163 2.77338 10.0741 2.62476 10.5 2.62476C10.9259 2.62476 11.3384 2.77338 11.6664 3.045L16.7991 7.26075C17.2419 7.62387 17.5 8.17512 17.5 8.757V16.4587C17.5 17.5175 16.6644 18.375 15.6336 18.375H5.36637Z" stroke="#737791" stroke-width="1.3125" stroke-linecap="round" stroke-linejoin="round"/>
<path d="M8.3125 18.3748V13.5623C8.3125 13.0981 8.49687 12.653 8.82506 12.3248C9.15325 11.9966 9.59837 11.8123 10.0625 11.8123H10.9375C11.4016 11.8123 11.8467 11.9966 12.1749 12.3248C12.5031 12.653 12.6875 13.0981 12.6875 13.5623V18.3748" stroke="#737791" stroke-width="1.3125" stroke-linecap="round" stroke-linejoin="round"/>
</svg>
