<svg width="21" height="21" viewBox="0 0 21 21" fill="none" xmlns="http://www.w3.org/2000/svg">
<path d="M4.375 17V14.8125L15.9373 3.2555C16.0335 3.15925 16.135 3.09275 16.2418 3.056C16.3485 3.01925 16.4547 3.00058 16.5603 3C16.6705 3 16.7808 3.01867 16.891 3.056C17.0018 3.09275 17.0981 3.15925 17.1798 3.2555L18.1186 4.19525C18.2149 4.27692 18.2817 4.37317 18.319 4.484C18.3558 4.59425 18.3741 4.70421 18.3741 4.81387C18.3741 4.92062 18.3558 5.02738 18.319 5.13413C18.2823 5.24088 18.2152 5.34238 18.1177 5.43863L6.5625 17H4.375ZM5.25 16.125H6.18887L15.4254 6.89375L14.9642 6.41075L14.4812 5.94962L5.25 15.1861V16.125ZM14.9642 6.41075L14.4812 5.94962L15.4254 6.89375L14.9642 6.41075ZM12.4854 17C13.4525 17 14.3506 16.7696 15.1795 16.3087C16.0084 15.8479 16.4229 15.2033 16.4229 14.375C16.4229 13.8728 16.2537 13.4265 15.9154 13.0363C15.577 12.646 15.0844 12.3228 14.4375 12.0668L13.769 12.7353C14.329 12.926 14.7656 13.1622 15.0789 13.444C15.3921 13.7257 15.5485 14.0361 15.5479 14.375C15.5479 14.8673 15.2454 15.2821 14.6405 15.6193C14.035 15.9564 13.3166 16.125 12.4854 16.125C12.3611 16.125 12.257 16.1667 12.173 16.2501C12.089 16.3335 12.0473 16.4377 12.0479 16.5625C12.0485 16.6873 12.0902 16.7915 12.173 16.8749C12.2558 16.9583 12.36 17 12.4854 17ZM4.91225 11.3326L5.551 10.6764C5.15842 10.5037 4.86442 10.3246 4.669 10.1391C4.473 9.95304 4.375 9.76083 4.375 9.5625C4.375 9.29767 4.53717 9.03837 4.8615 8.78463C5.18525 8.53146 5.79833 8.21121 6.70075 7.82387C7.84933 7.33737 8.624 6.89871 9.02475 6.50787C9.42492 6.11821 9.625 5.67808 9.625 5.1875C9.625 4.554 9.34062 4.03104 8.77187 3.61862C8.20312 3.20621 7.46667 3 6.5625 3C6.01825 3 5.50142 3.09975 5.012 3.29925C4.522 3.49933 4.16646 3.74433 3.94537 4.03425C3.86371 4.13458 3.829 4.2425 3.84125 4.358C3.8535 4.4735 3.90979 4.57063 4.01013 4.64938C4.10929 4.71938 4.21429 4.74854 4.32512 4.73688C4.43479 4.72463 4.53046 4.67737 4.61212 4.59512C4.85012 4.35712 5.13217 4.17775 5.45825 4.057C5.78492 3.93567 6.153 3.875 6.5625 3.875C7.25025 3.875 7.78692 4.0045 8.1725 4.2635C8.5575 4.52367 8.75 4.83167 8.75 5.1875C8.75 5.49258 8.58871 5.76821 8.26612 6.01438C7.94354 6.26054 7.30625 6.59508 6.35425 7.018C5.26575 7.49458 4.51792 7.91546 4.11075 8.28062C3.70358 8.64579 3.5 9.07308 3.5 9.5625C3.5 9.91717 3.62133 10.2418 3.864 10.5364C4.10608 10.8304 4.45608 11.0958 4.91225 11.3326Z" fill="#737791"/>
</svg>
