<svg width="21" height="21" viewBox="0 0 21 21" fill="none" xmlns="http://www.w3.org/2000/svg">
<g clip-path="url(#clip0_704_967)">
<path d="M12.5256 7.96047C12.4044 7.61961 12.1808 7.32453 11.8854 7.11563C11.5901 6.90672 11.2374 6.7942 10.8756 6.79347H9.52109C9.13467 6.79145 8.76121 6.93278 8.47295 7.19015C8.18469 7.44751 8.00211 7.80263 7.9605 8.18681C7.91889 8.571 8.02121 8.95697 8.24769 9.27008C8.47416 9.5832 8.80869 9.80121 9.18659 9.88197L11.2491 10.332C11.6708 10.4243 12.0436 10.6692 12.2957 11.0197C12.5478 11.3701 12.6616 11.8014 12.615 12.2306C12.5685 12.6598 12.3651 13.0566 12.0437 13.3449C11.7224 13.6332 11.3058 13.7926 10.8741 13.7925H9.70859C8.94659 13.7925 8.29859 13.3065 8.05859 12.627M10.2921 6.79347V5.04297M10.2921 15.543V13.794M2.99609 20.2485V16.4985H6.74609" stroke="#737791" stroke-width="1.3" stroke-linecap="round" stroke-linejoin="round"/>
<path d="M20.0812 8.70596C20.4794 10.8288 20.1614 13.0237 19.1773 14.9463C18.1931 16.8689 16.5984 18.4103 14.6435 19.3285C12.6886 20.2468 10.4841 20.4899 8.376 20.0198C6.26795 19.5497 4.37567 18.3929 2.99616 16.731M0.917159 12.294C0.518946 10.1711 0.836874 7.97619 1.82104 6.0536C2.80521 4.13101 4.39991 2.58963 6.35484 1.67138C8.30976 0.753131 10.5143 0.509994 12.6223 0.980132C14.7304 1.45027 16.6227 2.60707 18.0022 4.26896" stroke="#737791" stroke-width="1.3" stroke-linecap="round" stroke-linejoin="round"/>
<path d="M18.002 0.75293V4.50293H14.252" stroke="#737791" stroke-width="1.3" stroke-linecap="round" stroke-linejoin="round"/>
</g>
<defs>
<clipPath id="clip0_704_967">
<rect width="21" height="21" fill="white"/>
</clipPath>
</defs>
</svg>
