<svg width="24" height="24" viewBox="0 0 24 24" fill="none" xmlns="http://www.w3.org/2000/svg">
<path d="M19.887 12.5313L21.243 13.7388C21.4934 13.9478 21.6607 14.2395 21.7146 14.5611C21.7685 14.8828 21.7055 15.2131 21.537 15.4923L19.902 18.2853C19.7751 18.4991 19.594 18.6756 19.377 18.7968C19.1574 18.9183 18.9109 18.9828 18.66 18.9843C18.5043 18.9853 18.3494 18.962 18.201 18.9153L16.4655 18.3423C16.1615 18.5373 15.8455 18.7118 15.5175 18.8658L15.153 20.6253C15.0855 20.949 14.9053 21.2382 14.6445 21.4413C14.3803 21.6481 14.0528 21.7573 13.7175 21.7503H10.332C9.99658 21.7573 9.6691 21.6481 9.40496 21.4413C9.14468 21.2379 8.96502 20.9488 8.89796 20.6253L8.53196 18.8658C8.20826 18.7097 7.89419 18.5344 7.59146 18.3408L5.84996 18.9153C5.70146 18.962 5.54661 18.9853 5.39096 18.9843C5.14055 18.9825 4.89457 18.9181 4.67546 18.7968C4.45862 18.676 4.27751 18.5001 4.15046 18.2868L2.45696 15.4923C2.2809 15.2106 2.21363 14.8743 2.26775 14.5465C2.32187 14.2188 2.49368 13.922 2.75096 13.7118L4.10546 12.0003V11.4693L2.74946 10.2618C2.49905 10.0529 2.33174 9.76114 2.27781 9.43949C2.22388 9.11784 2.2869 8.78752 2.45546 8.50831L4.14896 5.71531C4.27581 5.50151 4.45693 5.32505 4.67396 5.20381C4.89307 5.08257 5.13905 5.01811 5.38946 5.01631C5.54371 5.00658 5.69853 5.02075 5.84846 5.05831L7.55546 5.65831C7.86046 5.46331 8.17646 5.28881 8.50346 5.13481L8.86946 3.37531C8.93652 3.05186 9.11618 2.76271 9.37646 2.55931C9.6406 2.35253 9.96808 2.24337 10.3035 2.25031H13.6605C13.9958 2.24337 14.3233 2.35253 14.5875 2.55931C14.85 2.76481 15.03 3.05431 15.0945 3.37531L15.4605 5.13481C15.7855 5.28981 16.099 5.46481 16.401 5.65981L18.144 5.08681C18.3374 5.02388 18.5418 5.00179 18.7442 5.02193C18.9467 5.04207 19.1427 5.104 19.32 5.20381C19.5375 5.32681 19.7175 5.50381 19.845 5.71381L21.537 8.50831C21.7154 8.78764 21.7861 9.12236 21.7358 9.44999C21.6856 9.77761 21.5179 10.0758 21.264 10.2888L19.887 11.4618V12.5313Z" stroke="#6F6B68" stroke-width="1.5"/>
<path d="M15.75 12C15.75 12.9946 15.3549 13.9484 14.6517 14.6517C13.9484 15.3549 12.9946 15.75 12 15.75C11.0054 15.75 10.0516 15.3549 9.34835 14.6517C8.64509 13.9484 8.25 12.9946 8.25 12C8.25 11.0054 8.64509 10.0516 9.34835 9.34835C10.0516 8.64509 11.0054 8.25 12 8.25C12.9946 8.25 13.9484 8.64509 14.6517 9.34835C15.3549 10.0516 15.75 11.0054 15.75 12Z" stroke="#6F6B68" stroke-width="1.5"/>
</svg>
