<svg width="21" height="21" viewBox="0 0 21 21" fill="none" xmlns="http://www.w3.org/2000/svg">
<path d="M17.5 15.75C17.5 15.5179 17.4078 15.2954 17.2437 15.1313C17.0796 14.9672 16.8571 14.875 16.625 14.875H4.375C4.14294 14.875 3.92038 14.9672 3.75628 15.1313C3.59219 15.2954 3.5 15.5179 3.5 15.75C3.5 15.9821 3.59219 16.2046 3.75628 16.3687C3.92038 16.5328 4.14294 16.625 4.375 16.625H16.625C16.8571 16.625 17.0796 16.5328 17.2437 16.3687C17.4078 16.2046 17.5 15.9821 17.5 15.75ZM14 5.25C14 5.01794 13.9078 4.79538 13.7437 4.63128C13.5796 4.46719 13.3571 4.375 13.125 4.375H4.375C4.14294 4.375 3.92038 4.46719 3.75628 4.63128C3.59219 4.79538 3.5 5.01794 3.5 5.25C3.5 5.48206 3.59219 5.70462 3.75628 5.86872C3.92038 6.03281 4.14294 6.125 4.375 6.125H13.125C13.3571 6.125 13.5796 6.03281 13.7437 5.86872C13.9078 5.70462 14 5.48206 14 5.25ZM10.5 10.5C10.5 10.2679 10.4078 10.0454 10.2437 9.88128C10.0796 9.71719 9.85706 9.625 9.625 9.625H4.375C4.14294 9.625 3.92038 9.71719 3.75628 9.88128C3.59219 10.0454 3.5 10.2679 3.5 10.5C3.5 10.7321 3.59219 10.9546 3.75628 11.1187C3.92038 11.2828 4.14294 11.375 4.375 11.375H9.625C9.85706 11.375 10.0796 11.2828 10.2437 11.1187C10.4078 10.9546 10.5 10.7321 10.5 10.5Z" fill="#737791"/>
</svg>
