<svg width="47" height="47" viewBox="0 0 47 47" fill="none" xmlns="http://www.w3.org/2000/svg">
<rect width="46.2257" height="46.2257" rx="23.1129" fill="#D6EBFF"/>
<path d="M16.1133 28.1128V30.1128V16.1128V28.1128ZM16.7293 31.1128C16.2813 31.1128 15.8999 30.9555 15.5853 30.6408C15.2706 30.3261 15.1133 29.9451 15.1133 29.4978V16.7278C15.1133 16.2811 15.2706 15.9001 15.5853 15.5848C15.8999 15.2701 16.2813 15.1128 16.7293 15.1128H29.4983C29.9449 15.1128 30.3259 15.2701 30.6413 15.5848C30.9559 15.8995 31.1133 16.2808 31.1133 16.7288V19.6708H30.1133V16.7288C30.1133 16.5488 30.0556 16.4011 29.9403 16.2858C29.8249 16.1705 29.6776 16.1128 29.4983 16.1128H16.7283C16.5489 16.1128 16.4016 16.1705 16.2863 16.2858C16.1709 16.4011 16.1133 16.5488 16.1133 16.7288V29.4978C16.1133 29.6771 16.1709 29.8245 16.2863 29.9398C16.4016 30.0551 16.5493 30.1128 16.7293 30.1128H29.4983C29.6776 30.1128 29.8249 30.0551 29.9403 29.9398C30.0556 29.8245 30.1133 29.6771 30.1133 29.4978V26.5548H31.1133V29.4978C31.1133 29.9445 30.9559 30.3255 30.6413 30.6408C30.3266 30.9555 29.9456 31.1128 29.4983 31.1128H16.7293ZM24.7293 27.1128C24.2813 27.1128 23.8999 26.9555 23.5853 26.6408C23.2706 26.3261 23.1133 25.9451 23.1133 25.4978V20.7278C23.1133 20.2811 23.2706 19.9001 23.5853 19.5848C23.8999 19.2701 24.2813 19.1128 24.7293 19.1128H30.4983C30.9449 19.1128 31.3259 19.2701 31.6413 19.5848C31.9559 19.8995 32.1133 20.2808 32.1133 20.7288V25.4978C32.1133 25.9445 31.9559 26.3255 31.6413 26.6408C31.3266 26.9555 30.9456 27.1128 30.4983 27.1128H24.7293ZM30.4983 26.1128C30.6776 26.1128 30.8249 26.0551 30.9403 25.9398C31.0556 25.8245 31.1133 25.6771 31.1133 25.4978V20.7278C31.1133 20.5485 31.0556 20.4011 30.9403 20.2858C30.8249 20.1705 30.6776 20.1128 30.4983 20.1128H24.7283C24.5489 20.1128 24.4016 20.1705 24.2863 20.2858C24.1709 20.4011 24.1133 20.5488 24.1133 20.7288V25.4978C24.1133 25.6771 24.1709 25.8245 24.2863 25.9398C24.4016 26.0551 24.5493 26.1128 24.7293 26.1128H30.4983ZM27.1133 24.6128C27.5299 24.6128 27.8843 24.4671 28.1763 24.1758C28.4683 23.8845 28.6139 23.5301 28.6133 23.1128C28.6126 22.6955 28.4669 22.3415 28.1763 22.0508C27.8856 21.7601 27.5313 21.6141 27.1133 21.6128C26.6953 21.6115 26.3413 21.7575 26.0513 22.0508C25.7613 22.3441 25.6153 22.6981 25.6133 23.1128C25.6113 23.5275 25.7573 23.8818 26.0513 24.1758C26.3453 24.4698 26.6993 24.6155 27.1133 24.6128Z" fill="#007AF5"/>
</svg>
