<svg width="44" height="44" viewBox="0 0 44 44" fill="none" xmlns="http://www.w3.org/2000/svg">
<rect width="44" height="44" rx="22" fill="#D6EBFF"/>
<path d="M22.3058 18.1527C22.5613 18.1527 22.8064 18.0511 22.9872 17.8704C23.1679 17.6897 23.2694 17.4446 23.2694 17.189C23.2694 16.9335 23.1679 16.6884 22.9872 16.5076C22.8064 16.3269 22.5613 16.2254 22.3058 16.2254C22.0502 16.2254 21.8051 16.3269 21.6244 16.5076C21.4437 16.6884 21.3421 16.9335 21.3421 17.189C21.3421 17.4446 21.4437 17.6897 21.6244 17.8704C21.8051 18.0511 22.0502 18.1527 22.3058 18.1527ZM29.2425 26.7843V20.6106H29.3489C30.3813 20.6106 30.8056 19.2834 29.9616 18.6856L23.1983 13.8854C22.9377 13.6997 22.6257 13.5999 22.3058 13.5999C21.9858 13.5999 21.6738 13.6997 21.4132 13.8854L14.6476 18.6856C13.8059 19.2834 14.2279 20.6094 15.2603 20.6094H15.369V26.7831C14.6742 27.2294 14.2129 28.0086 14.2129 28.8954V30.4365C14.2129 30.5898 14.2738 30.7369 14.3822 30.8453C14.4906 30.9537 14.6376 31.0146 14.7909 31.0146H29.8206C29.9739 31.0146 30.1209 30.9537 30.2293 30.8453C30.3377 30.7369 30.3986 30.5898 30.3986 30.4365V28.8954C30.3986 28.0086 29.9385 27.2294 29.2425 26.7843ZM22.0815 14.8288C22.1463 14.7822 22.2242 14.7572 22.304 14.7572C22.3839 14.7572 22.4617 14.7822 22.5266 14.8288L29.046 19.4533H15.5632L22.0815 14.8288ZM28.0841 20.6094V26.397C28.0202 26.392 27.9562 26.3897 27.8922 26.3901H25.7718V20.6106L28.0841 20.6094ZM16.5251 26.397V20.6106H18.8374V26.3912H16.717C16.6523 26.3912 16.5879 26.3935 16.524 26.3982M16.717 27.5473H27.8933C28.6379 27.5473 29.2414 28.1508 29.2414 28.8965V29.8596H15.369V28.8965C15.369 28.1508 15.9725 27.5473 16.717 27.5473ZM21.7277 26.3912H19.9935V20.6106H21.7277V26.3912ZM22.8838 26.3912V20.6106H24.618V26.3912H22.8838Z" fill="#007AF5"/>
</svg>
