<svg width="47" height="47" viewBox="0 0 47 47" fill="none" xmlns="http://www.w3.org/2000/svg">
<rect width="46.2257" height="46.2257" rx="23.1129" fill="#D6EBFF"/>
<path d="M14.2853 31.9408C15.4563 33.1128 17.3423 33.1128 21.1133 33.1128H25.1133C28.8843 33.1128 30.7703 33.1128 31.9413 31.9408C33.1123 30.7688 33.1133 28.8838 33.1133 25.1128C33.1133 23.9428 33.1133 22.9548 33.0783 22.1128M31.9413 18.2848C30.7703 17.1128 28.8843 17.1128 25.1133 17.1128H21.1133C17.3423 17.1128 15.4563 17.1128 14.2853 18.2848C13.1143 19.4568 13.1133 21.3418 13.1133 25.1128C13.1133 26.2828 13.1133 27.2708 13.1483 28.1128M23.1133 13.1128C24.9993 13.1128 25.9413 13.1128 26.5273 13.6988C27.1133 14.2848 27.1133 15.2268 27.1133 17.1128M19.6993 13.6988C19.1133 14.2848 19.1133 15.2268 19.1133 17.1128" stroke="#007AF5" stroke-width="1.5" stroke-linecap="round"/>
<path d="M23.1133 28.4458C24.2183 28.4458 25.1133 27.6998 25.1133 26.7798C25.1133 25.8598 24.2183 25.1128 23.1133 25.1128C22.0083 25.1128 21.1133 24.3668 21.1133 23.4458C21.1133 22.5258 22.0083 21.7798 23.1133 21.7798M23.1133 28.4458C22.0083 28.4458 21.1133 27.6998 21.1133 26.7798M23.1133 28.4458V29.1128M23.1133 21.7798V21.1128M23.1133 21.7798C24.2183 21.7798 25.1133 22.5258 25.1133 23.4458" stroke="#007AF5" stroke-width="1.5" stroke-linecap="round"/>
</svg>
